<?xml version="1.0" encoding="utf-8"?>
<!-- Generator: Adobe Illustrator 23.0.0, SVG Export Plug-In . SVG Version: 6.00 Build 0)  -->
<svg version="1.1" id="Layer_1" xmlns="http://www.w3.org/2000/svg" xmlns:xlink="http://www.w3.org/1999/xlink" x="0px" y="0px"
	 viewBox="0 0 512 512" style="enable-background:new 0 0 512 512;" xml:space="preserve">
<style type="text/css">
	.st0{fill-rule:evenodd;clip-rule:evenodd;}
</style>
<g>
	<path class="st0" d="M256,0C114.6,0,0,117.5,0,262.5c0,116,73.4,214.3,175.1,249.1c12.8,2.4,17.5-5.7,17.5-12.7
		c0-6.3-0.2-22.7-0.3-44.7C121,470.1,105.9,419,105.9,419c-11.7-30.3-28.5-38.4-28.5-38.4c-23.2-16.3,1.7-16,1.7-16
		c25.7,1.8,39.2,27.1,39.2,27.1c22.9,40.1,59.9,28.6,74.5,21.8c2.3-16.9,8.9-28.6,16.2-35.1c-56.8-6.6-116.6-29.1-116.6-129.7
		c0-28.7,9.9-52.1,26.3-70.4c-2.6-6.6-11.4-33.4,2.5-69.5c0,0,21.5-7.1,70.4,26.9c20.5-5.8,42.3-8.7,64.1-8.8
		c21.7,0.1,43.7,3,64.1,8.8c48.9-33.9,70.3-26.9,70.3-26.9c13.9,36.1,5.1,62.9,2.5,69.5c16.3,18.4,26.3,41.8,26.3,70.4
		c0,100.8-59.9,123-116.9,129.5c9.1,8.1,17.4,24.1,17.4,48.6c0,35.1-0.3,63.4-0.3,72c0,7,4.6,15.2,17.6,12.6
		C438.7,476.7,512,378.4,512,262.5C512,117.5,397.4,0,256,0z"/>
</g>
</svg>
